<?xml version="1.0" encoding="UTF-8"?>
<svg xmlns="http://www.w3.org/2000/svg" viewBox="0 0 280 70" width="280" height="70">
  <defs>
    <linearGradient id="elasGradient" x1="0%" y1="0%" x2="100%" y2="100%">
      <stop offset="0%" stop-color="#FF4D7E"/>
      <stop offset="100%" stop-color="#A78BFA"/>
    </linearGradient>
  </defs>
  <g transform="translate(38, 40)">
    <g transform="translate(-18, 2) rotate(-8)">
      <circle cx="0" cy="-11" r="5" fill="#FF7FA3"/>
      <path d="M -6 -5 Q -8 -1, -6 5 Q -4 11, 0 12 Q 4 11, 6 5 Q 8 -1, 6 -5 Q 3 -6, 0 -6 Q -3 -6, -6 -5 Z" fill="#FF7FA3"/>
    </g>
    <g transform="translate(0, 0)">
      <circle cx="0" cy="-15" r="7.5" fill="#FF4D7E"/>
      <path d="M -9 -6 Q -11 -2, -9 6 Q -6 15, 0 16 Q 6 15, 9 6 Q 11 -2, 9 -6 Q 4 -8, 0 -8 Q -4 -8, -9 -6 Z" fill="#FF4D7E"/>
    </g>
    <g transform="translate(18, 2) rotate(8)">
      <circle cx="0" cy="-11" r="5" fill="#A78BFA"/>
      <path d="M -6 -5 Q -8 -1, -6 5 Q -4 11, 0 12 Q 4 11, 6 5 Q 8 -1, 6 -5 Q 3 -6, 0 -6 Q -3 -6, -6 -5 Z" fill="#A78BFA"/>
    </g>
    <circle cx="0" cy="-28" r="2.5" fill="url(#elasGradient)"/>
  </g>
  <text x="85" y="50" font-family="Inter, -apple-system, BlinkMacSystemFont, 'Segoe UI', Helvetica, Arial, sans-serif" font-size="40" font-weight="900" fill="url(#elasGradient)" letter-spacing="-1.5">ELAS</text>
</svg>
