<?xml version="1.0" encoding="UTF-8"?>
<svg xmlns="http://www.w3.org/2000/svg" viewBox="0 0 120 120" width="120" height="120">
  <defs>
    <linearGradient id="elasGradient" x1="0%" y1="0%" x2="100%" y2="100%">
      <stop offset="0%" stop-color="#FF4D7E"/>
      <stop offset="100%" stop-color="#A78BFA"/>
    </linearGradient>
  </defs>
  <g transform="translate(60, 64)">
    <g transform="translate(-30, 4) rotate(-8)">
      <circle cx="0" cy="-18" r="8" fill="#FF7FA3"/>
      <path d="M -10 -8 Q -13 -2, -10 8 Q -6 18, 0 20 Q 6 18, 10 8 Q 13 -2, 10 -8 Q 5 -10, 0 -10 Q -5 -10, -10 -8 Z" fill="#FF7FA3"/>
    </g>
    <g transform="translate(0, 0)">
      <circle cx="0" cy="-24" r="12" fill="#FF4D7E"/>
      <path d="M -14 -10 Q -17 -3, -14 10 Q -9 24, 0 25 Q 9 24, 14 10 Q 17 -3, 14 -10 Q 7 -12, 0 -12 Q -7 -12, -14 -10 Z" fill="#FF4D7E"/>
    </g>
    <g transform="translate(30, 4) rotate(8)">
      <circle cx="0" cy="-18" r="8" fill="#A78BFA"/>
      <path d="M -10 -8 Q -13 -2, -10 8 Q -6 18, 0 20 Q 6 18, 10 8 Q 13 -2, 10 -8 Q 5 -10, 0 -10 Q -5 -10, -10 -8 Z" fill="#A78BFA"/>
    </g>
    <circle cx="0" cy="-44" r="3.5" fill="url(#elasGradient)"/>
  </g>
</svg>
